<svg id="Layer_1" data-name="Layer 1" xmlns="http://www.w3.org/2000/svg" viewBox="0 0 800 800"><defs><style>.cls-1{fill:#5481c2;opacity:0.2;}.cls-16,.cls-18,.cls-2,.cls-4{fill:none;}.cls-2{stroke:#d0d9dd;}.cls-15,.cls-16,.cls-2{stroke-miterlimit:10;}.cls-15,.cls-3{fill:#d0d9dd;}.cls-5{fill:#5881c2;}.cls-6{fill:#f598a9;}.cls-7{fill:#7a5749;}.cls-8{fill:#f79020;}.cls-9{fill:#6a9a40;}.cls-10{fill:#faa847;}.cls-11{fill:#7a491e;}.cls-12{fill:#f08022;}.cls-13{fill:#436497;}.cls-14{fill:#e6ebec;}.cls-15,.cls-16{stroke:#fff;stroke-width:2px;}.cls-17{fill:#e61b47;}.cls-18{stroke:#e61b47;stroke-linecap:round;stroke-linejoin:round;stroke-width:4px;}</style></defs><title>Icons for Browsing Trends</title><ellipse class="cls-1" cx="369.14" cy="700.16" rx="274.21" ry="14.45"/><path class="cls-2" d="M642.16,135.53V387.15A108.78,108.78,0,0,0,510.71,528.89H117.59A22.69,22.69,0,0,1,94.92,506.2V135.53a22.69,22.69,0,0,1,22.68-22.69H619.48A22.69,22.69,0,0,1,642.16,135.53Z"/><path class="cls-3" d="M642.12,135.79V157.7H94.86V135.79a22.69,22.69,0,0,1,22.69-22.68H619.42A22.69,22.69,0,0,1,642.12,135.79Z"/><circle class="cls-4" cx="666.24" cy="518.51" r="119"/><rect class="cls-5" x="94.94" y="158.11" width="546.03" height="36.79"/><line class="cls-2" x1="201.46" y1="194.98" x2="201.46" y2="528.88"/><path class="cls-3" d="M642.16,387.15v119a22.69,22.69,0,0,1-22.68,22.69H510.71A108.79,108.79,0,0,1,642.16,387.15Z"/><circle class="cls-6" cx="614.38" cy="492.73" r="96.08"/><polygon class="cls-7" points="660.56 560.53 573.9 560.53 579.8 500.19 651.03 498.83 660.56 560.53"/><polygon class="cls-8" points="640.9 572.17 591.17 571.54 597.26 517 634.95 517 640.9 572.17"/><path class="cls-9" d="M561.91,573.15s51.71,33.47,107.14.58c0,0-2.81-41.12-32.27-41.19,0,0-3.6,15.53-20.43,15.81S595,532.76,595,532.76,569.78,529.79,561.91,573.15Z"/><path class="cls-8" d="M572,478a38.73,38.73,0,0,1,5.7,6.76c-.5,3.35,1,6.88-.92,10.11C569.42,492,567.32,484.65,572,478Z"/><path class="cls-8" d="M655.57,485.11a38.6,38.6,0,0,1,5.7-6.76c4.7,6.63,2.6,14-4.78,16.87C654.62,492,656.07,488.47,655.57,485.11Z"/><path class="cls-10" d="M576,495.22s5.17,37,39.35,37,41.34-31.4,41.74-35.77,9.54-63.2-38.56-63.2S576,495.22,576,495.22Z"/><path class="cls-7" d="M580.69,483.44s0-11.53,8.74-16.69,14.71-1.59,19.48-3.58,13.91-11.13,14.31-13.51,1.59,17.09,9.94,22.66,19.08,9.54,20.27,12.72,1.19-4,2.78-4,2.63,2.47,3.53,1.57,8.74-16.59-6.5-43.28c0,0-6.28-11.21-22.65-17,0,0,1.79-15.47-13.23-15.92s-13.45,15.25-13.45,15.25-18.1,2.08-28.78,26.83c0,0-5.3,13.53-1.94,32.82,0,0,.67,2.91,2.47,2.47a4,4,0,0,0,2.47-2.47Z"/><path class="cls-11" d="M597.87,481.13a5.19,5.19,0,1,1,.19,10.38,5.2,5.2,0,1,1-.19-10.38Z"/><path class="cls-11" d="M641.12,486.14A5.39,5.39,0,0,1,636,491.5a5.2,5.2,0,1,1-.7-10.37A5.41,5.41,0,0,1,641.12,486.14Z"/><path class="cls-12" d="M617.3,515.05c-4.64-.27-8.25-2.43-11.46-5.41-.6-.55-1.32-1.27-.94-2.15s1.26-.42,1.92-.42q10.38,0,20.77,0c.66,0,1.55-.36,1.92.43s-.22,1.39-.72,1.88C625.56,512.55,621.84,514.74,617.3,515.05Z"/><rect class="cls-13" x="237.59" y="169.24" width="227.35" height="19.38"/><rect class="cls-14" x="106.13" y="208.19" width="84.8" height="13.52"/><rect class="cls-14" x="106.83" y="228.93" width="84.8" height="13.52"/><rect class="cls-14" x="106.83" y="249.4" width="84.8" height="13.52"/><line class="cls-15" x1="87.99" y1="145.66" x2="653.71" y2="145.66"/><path class="cls-16" d="M115.07,145.45l21-18.86a18.74,18.74,0,0,1,12.5-4.66H281.63a19.09,19.09,0,0,1,12.74,4.75l19.87,17.87"/><circle class="cls-6" cx="618.5" cy="177.31" r="12.24"/><polygon class="cls-7" points="624.38 185.95 613.34 185.95 614.1 178.26 623.17 178.09 624.38 185.95"/><polygon class="cls-8" points="621.88 187.43 615.54 187.35 616.32 180.4 621.12 180.4 621.88 187.43"/><path class="cls-9" d="M611.82,187.55a13.54,13.54,0,0,0,13.65.07s-.36-5.24-4.11-5.25a2.7,2.7,0,0,1-2.6,2,2.81,2.81,0,0,1-2.72-2S612.82,182,611.82,187.55Z"/><path class="cls-8" d="M613.11,175.44a4.93,4.93,0,0,1,.73.86c-.06.43.12.88-.12,1.29A1.33,1.33,0,0,1,613.11,175.44Z"/><path class="cls-8" d="M623.75,176.34a4.92,4.92,0,0,1,.73-.86,1.33,1.33,0,0,1-.61,2.15C623.62,177.22,623.81,176.77,623.75,176.34Z"/><path class="cls-10" d="M613.61,177.63s.66,4.71,5,4.71a5.3,5.3,0,0,0,5.32-4.56c.05-.56,1.22-8-4.91-8S613.61,177.63,613.61,177.63Z"/><path class="cls-7" d="M614.21,176.13a2.65,2.65,0,0,1,1.11-2.13c1.11-.66,1.87-.2,2.48-.46a5,5,0,0,0,1.82-1.72c.05-.3.2,2.18,1.27,2.89s2.43,1.22,2.58,1.62.15-.51.35-.51.33.31.45.2,1.11-2.11-.83-5.51a5.49,5.49,0,0,0-2.88-2.17,1.74,1.74,0,0,0-1.68-2c-1.91-.06-1.71,1.94-1.71,1.94s-2.31.26-3.67,3.42a8.44,8.44,0,0,0-.25,4.18s.09.37.31.31a.51.51,0,0,0,.31-.31Z"/><path class="cls-11" d="M616.4,175.83a.66.66,0,1,1,0,1.32.66.66,0,1,1,0-1.32Z"/><path class="cls-11" d="M621.91,176.47a.69.69,0,0,1-.65.68.66.66,0,1,1-.09-1.32A.69.69,0,0,1,621.91,176.47Z"/><path class="cls-12" d="M618.87,180.16a2.3,2.3,0,0,1-1.46-.69c-.08-.07-.17-.16-.12-.27s.16-.05.24-.05h2.65c.08,0,.2,0,.24.05s0,.18-.09.24A2.29,2.29,0,0,1,618.87,180.16Z"/><polygon class="cls-17" points="583.03 40.11 559.01 58.41 581.07 69.09 583.03 40.11"/><polygon class="cls-2" points="491.5 391.4 235.17 391.4 235.17 313.15 235.17 287.96 491.5 287.96 491.5 391.4"/><rect class="cls-3" x="235.55" y="401.41" width="256.33" height="16.27"/><rect class="cls-3" x="236.26" y="425.12" width="256.33" height="16.27"/><rect class="cls-3" x="236.01" y="449.11" width="256.33" height="16.27"/><line class="cls-2" x1="490.8" y1="322.3" x2="235.95" y2="322.3"/><line class="cls-2" x1="400.96" y1="287.8" x2="400.96" y2="322.48"/><line class="cls-2" x1="316.86" y1="287.28" x2="316.86" y2="321.97"/><line class="cls-2" x1="358.98" y1="287.8" x2="358.98" y2="322.48"/><polyline class="cls-18" points="251.44 380.01 277.25 358.66 295.04 378.23 349.31 317.73 401.81 372.89 575.3 54.37"/><line class="cls-2" x1="276" y1="288.13" x2="276" y2="322.82"/></svg>