<svg id="Layer_1" data-name="Layer 1" xmlns="http://www.w3.org/2000/svg" viewBox="0 0 750 750"><defs><style>.cls-1{fill:#519af2;}.cls-11,.cls-2,.cls-3{fill:none;stroke-miterlimit:10;}.cls-2,.cls-3{stroke:#5481c2;stroke-linecap:round;stroke-width:3px;}.cls-3{stroke-dasharray:11.84 11.84;}.cls-23,.cls-4{fill:#5481c2;}.cls-5{fill:#cfd5d3;}.cls-10,.cls-6{fill:#4067b1;}.cls-6,.cls-7,.cls-9{opacity:0.87;}.cls-13,.cls-23,.cls-6,.cls-7,.cls-9{isolation:isolate;}.cls-13,.cls-15,.cls-7{fill:#2653a3;}.cls-8{fill:#e2e2e2;}.cls-16,.cls-9{fill:#fff;}.cls-11{stroke:#d0d4d8;stroke-width:4px;}.cls-12{fill:#fafbf8;}.cls-13{opacity:0.62;}.cls-14{opacity:0.45;}.cls-17{fill:#7a5749;}.cls-18{fill:#f79020;}.cls-19{fill:#39d37b;}.cls-20{fill:#faa847;}.cls-21{fill:#7a491e;}.cls-22{fill:#f08022;}.cls-23{opacity:0.2;}</style></defs><title>screen-new</title><circle class="cls-1" cx="305.86" cy="401.02" r="183.3"/><path class="cls-2" d="M227.17,78.78q2.85-1,5.71-1.84"/><path class="cls-3" d="M244.27,73.69c128.31-33.47,263,36.61,307.64,164,45.74,130.36-19.67,272.8-146.54,323.91"/><path class="cls-2" d="M399.84,563.75q-2.8,1.06-5.64,2"/><path class="cls-4" d="M251.13,86.25a1.5,1.5,0,0,0-1.07-1.83l-22.21-5.79L242.49,61A1.5,1.5,0,0,0,240.18,59L224,78.53a1.5,1.5,0,0,0,.78,2.41l24.49,6.38a1.5,1.5,0,0,0,1.83-1.07h0Z"/><rect class="cls-5" x="343.18" y="106.29" width="226.25" height="32.13"/><rect class="cls-6" x="332.16" y="94.4" width="230" height="35.31"/><rect class="cls-7" x="337.67" y="98.78" width="218.98" height="26.57"/><rect class="cls-8" x="369.64" y="148.01" width="235.39" height="35.35"/><path class="cls-9" d="M538.56,114.84a6.54,6.54,0,0,1-8.73-9.66,6.45,6.45,0,0,1,8.41-1,6.53,6.53,0,0,1,1.84,9.05l-0.2.28,2.23,2,1.75,1.58a1,1,0,0,1,.13,1.41h0a1,1,0,0,1-1.39,0c-1.14-1-2.26-2.05-3.39-3.08Zm-3.91-10.9a5.54,5.54,0,0,0-5.68,5.4q0,0.14,0,.27a5.66,5.66,0,1,0,11.32,0,5.52,5.52,0,0,0-5.34-5.7h-0.3v0Z"/><rect class="cls-5" x="513.46" y="384.06" width="100.87" height="82.73"/><rect class="cls-10" x="510.28" y="381.65" width="100.03" height="82.47"/><circle class="cls-11" cx="560.8" cy="417.19" r="15.2"/><polygon class="cls-12" points="565.47 417.34 557.79 421.77 557.79 412.91 565.47 417.34"/><rect class="cls-12" x="510.13" y="446.91" width="100.69" height="17.31"/><rect class="cls-5" x="527.61" y="454.76" width="75.59" height="2.07" rx="0.82" ry="0.82"/><rect class="cls-13" x="528.14" y="454.96" width="29.3" height="2.07" rx="0.82" ry="0.82"/><g class="cls-14"><path class="cls-15" d="M496.37,232.64H532.5a8.6,8.6,0,0,1,7.13,3.8l3.3,4.9a2.38,2.38,0,0,0,2,1h63a6.45,6.45,0,0,1,6.44,6.46v68.34H488.13l1-77.31A7.29,7.29,0,0,1,496.37,232.64Z"/><path class="cls-10" d="M569.84,286c-2.13,3.62-4.18,7.08-6.21,10.55a0.91,0.91,0,0,1-.88.5H539a1.08,1.08,0,0,1-.26-0.06,0.4,0.4,0,0,1,0-.47l5.73-9.83a1.19,1.19,0,0,1,1.14-.76h23.57Z"/><path class="cls-10" d="M543,264.17l1.85,3.12c1.4,2.38,2.79,4.77,4.21,7.14a1.06,1.06,0,0,1,.06,1.26q-5.8,9.85-11.55,19.74c-0.54.92-.56,0.92-1.12,0-1.9-3.21-3.78-6.42-5.69-9.63a0.83,0.83,0,0,1,0-1q6.06-10.22,12.08-20.47C548.87,254.08,542.86,264.29,543,264.17Z"/><path class="cls-10" d="M544.37,263.16h12.09a1,1,0,0,1,1.08.51q6,10.17,11.92,20.32a1.09,1.09,0,0,1,.08.27,0.94,0.94,0,0,1-.77.14H557.49a1.18,1.18,0,0,1-1.19-.66q-5.92-10.13-11.89-20.23A2,2,0,0,1,544.37,263.16Z"/></g><rect class="cls-8" x="564.48" y="205.36" width="81.36" height="85.23"/><rect class="cls-16" x="572.13" y="219" width="58.61" height="2.98"/><rect class="cls-16" x="572.13" y="227.27" width="58.61" height="2.98"/><rect class="cls-16" x="572.13" y="234.94" width="58.61" height="2.98"/><rect class="cls-16" x="572.13" y="242.62" width="58.61" height="2.98"/><rect class="cls-16" x="572.13" y="251.15" width="58.61" height="2.98"/><rect class="cls-16" x="572.13" y="251.15" width="58.61" height="2.98"/><rect class="cls-16" x="572.13" y="259.68" width="48.67" height="2.98"/><path class="cls-15" d="M496.37,232.09H532.5a8.6,8.6,0,0,1,7.13,3.8l3.3,4.9a2.38,2.38,0,0,0,2,1h63a6.45,6.45,0,0,1,6.45,6.45h0v68.3H488.13l1-77.31A7.29,7.29,0,0,1,496.37,232.09Z"/><path class="cls-10" d="M569.84,285.44c-2.13,3.62-4.18,7.08-6.21,10.55a0.91,0.91,0,0,1-.88.5H539a1.08,1.08,0,0,1-.26-0.06,0.4,0.4,0,0,1,0-.47l5.73-9.83a1.19,1.19,0,0,1,1.14-.76h23.57Z"/><path class="cls-10" d="M543,263.62l1.85,3.12c1.4,2.38,2.79,4.77,4.21,7.14a1.06,1.06,0,0,1,.06,1.26q-5.76,9.86-11.55,19.7c-0.54.92-.56,0.92-1.12,0-1.9-3.21-3.78-6.42-5.69-9.63a0.83,0.83,0,0,1,0-1q6.06-10.22,12.08-20.47C548.87,253.49,542.86,263.74,543,263.62Z"/><path class="cls-10" d="M544.37,262.61h12.09a1,1,0,0,1,1.08.51q6,10.17,11.92,20.32a1.09,1.09,0,0,1,.08.27,0.94,0.94,0,0,1-.77.14H557.49a1.18,1.18,0,0,1-1.19-.66q-5.92-10.13-11.89-20.23A2,2,0,0,1,544.37,262.61Z"/><polygon class="cls-17" points="393.95 533.96 228.62 533.96 239.87 418.83 375.78 416.23 393.95 533.96"/><polygon class="cls-18" points="356.46 556.15 261.58 554.96 273.2 450.9 345.11 450.9 356.46 556.15"/><path class="cls-19" d="M204,553.4s92.73,71.45,205.71-1.29c0,0-4.87-73.83-61.07-74,0,0-6.86,29.63-39,30.17s-40.69-29.74-40.69-29.74S219,470.68,204,553.4Z"/><path class="cls-18" d="M225.06,376.47c4.26,3.76,7.6,8.3,10.87,12.9-1,6.4,1.82,13.13-1.75,19.29C220.08,403.28,216.08,389.17,225.06,376.47Z"/><path class="cls-18" d="M384.45,390.06c3.28-4.59,6.61-9.14,10.88-12.9,9,12.66,5,26.77-9.12,32.18C382.62,403.19,385.37,396.46,384.45,390.06Z"/><path class="cls-20" d="M232.56,409.34s9.81,70.5,75.07,70.5,78.87-59.91,79.63-68.25S405.46,291,313.7,291,232.56,409.34,232.56,409.34Z"/><path class="cls-17" d="M241.76,387s-0.06-22,16.6-31.89,28.05-3.07,37.14-6.92,26.49-21.3,27.23-25.85,3.08,32.6,19.11,43.18,36.41,18.14,38.71,24.18,2.26-7.59,5.29-7.59,5,4.7,6.74,3,16.6-31.7-12.62-82.54c0,0-12.05-21.36-43.29-32.4,0,0,3.35-29.53-25.32-30.31S285.75,269,285.75,269,251.23,273.1,231,320.33c0,0-10.05,25.85-3.54,62.62,0,0,1.29,5.56,4.72,4.7s4.7-4.72,4.7-4.72Z"/><path class="cls-21" d="M274.37,382.45c6.14-.09,10.32,4,10.24,10.07-0.08,5.77-4,9.67-9.88,9.74A9.92,9.92,0,1,1,274.37,382.45Z"/><path class="cls-21" d="M356.87,392c0.2,5.19-4.29,9.94-9.68,10.23-6.17.33-10.55-3.58-10.72-9.57-0.16-5.8,3.63-9.93,9.38-10.22S356.66,386.51,356.87,392Z"/><path class="cls-22" d="M311.42,447.18c-8.84-.51-15.74-4.63-21.86-10.33-1.14-1.06-2.51-2.42-1.8-4.09,0.64-1.5,2.4-.8,3.66-0.81q19.81-.07,39.62,0c1.25,0,3-.68,3.66.82s-0.42,2.65-1.37,3.59C327.18,442.4,320.1,446.59,311.42,447.18Z"/><ellipse class="cls-23" cx="338.94" cy="677" rx="234.78" ry="14.45"/></svg>