<svg id="Layer_1" data-name="Layer 1" xmlns="http://www.w3.org/2000/svg" viewBox="0 0 800 800"><defs><style>.cls-1{fill:#f598a9;}.cls-13,.cls-2,.cls-3{fill:none;stroke-miterlimit:10;}.cls-2,.cls-3{stroke:#5481c2;stroke-linecap:round;stroke-width:3px;}.cls-3{stroke-dasharray:11.84 11.84;}.cls-25,.cls-4{fill:#5481c2;}.cls-5{fill:#cfd5d3;}.cls-12,.cls-6{fill:#4067b1;}.cls-11,.cls-6,.cls-7,.cls-8{opacity:0.87;}.cls-15,.cls-16,.cls-7{fill:#2653a3;}.cls-8{font-size:10.73px;font-family:Roboto-Regular, Roboto;}.cls-11,.cls-18,.cls-8{fill:#fff;}.cls-9{letter-spacing:-0.01em;}.cls-10{fill:#e2e2e2;}.cls-13{stroke:#d0d4d8;stroke-width:4px;}.cls-14{fill:#fafbf8;}.cls-15{opacity:0.62;}.cls-17{opacity:0.45;}.cls-19{fill:#7a5749;}.cls-20{fill:#f79020;}.cls-21{fill:#6a9a40;}.cls-22{fill:#faa847;}.cls-23{fill:#7a491e;}.cls-24{fill:#f08022;}.cls-25{opacity:0.2;}</style></defs><title>Icons for Browsing Trends</title><circle class="cls-1" cx="375.49" cy="424.18" r="183.3"/><path class="cls-2" d="M296.8,101.94q2.85-1,5.71-1.84"/><path class="cls-3" d="M313.9,96.85c128.31-33.47,263,36.61,307.64,164C667.28,391.21,601.87,533.65,475,584.76"/><path class="cls-2" d="M469.47,586.91q-2.8,1.06-5.64,2.05"/><path class="cls-4" d="M320.76,109.41a1.5,1.5,0,0,0-1.07-1.83l-22.21-5.79,14.64-17.68a1.5,1.5,0,0,0-2.31-1.91l-16.14,19.49a1.5,1.5,0,0,0,.78,2.41l24.49,6.38a1.5,1.5,0,0,0,1.83-1.07Z"/><rect class="cls-5" x="412.81" y="129.45" width="226.25" height="32.13"/><rect class="cls-6" x="401.79" y="117.56" width="230" height="35.31"/><rect class="cls-7" x="407.3" y="121.94" width="218.98" height="26.57"/><text class="cls-8" transform="translate(419.95 138.07)">Sea<tspan class="cls-9" x="18.26" y="0">r</tspan><tspan x="21.84" y="0">ch</tspan></text><rect class="cls-10" x="439.27" y="171.17" width="235.39" height="35.35"/><path class="cls-11" d="M608.19,142a6.54,6.54,0,0,1-8.73-9.66,6.45,6.45,0,0,1,8.41-1,6.53,6.53,0,0,1,1.64,9.33l2.23,2,1.75,1.58a1,1,0,0,1,.13,1.41,1,1,0,0,1-1.39,0c-1.14-1-2.26-2.05-3.39-3.08Zm-3.91-10.9a5.54,5.54,0,0,0-5.68,5.67,5.66,5.66,0,1,0,11.32,0A5.52,5.52,0,0,0,604.28,131.07Z"/><rect class="cls-5" x="583.09" y="407.22" width="100.87" height="82.73"/><rect class="cls-12" x="579.91" y="404.81" width="100.03" height="82.47"/><circle class="cls-13" cx="630.43" cy="440.35" r="15.2"/><polygon class="cls-14" points="635.1 440.5 627.42 444.93 627.42 436.07 635.1 440.5"/><rect class="cls-14" x="579.76" y="470.07" width="100.69" height="17.31"/><rect class="cls-5" x="597.24" y="477.92" width="75.59" height="2.07" rx="0.82" ry="0.82"/><rect class="cls-15" x="597.77" y="478.12" width="29.3" height="2.07" rx="0.82" ry="0.82"/><rect class="cls-16" x="662.11" y="400.49" width="9.59" height="9.59"/><g class="cls-17"><path class="cls-16" d="M566,255.8h36.13a8.6,8.6,0,0,1,7.13,3.8l3.3,4.9a2.38,2.38,0,0,0,2,1h63A6.45,6.45,0,0,1,684,272v68.3H557.76l1-77.31A7.29,7.29,0,0,1,566,255.8Z"/><path class="cls-12" d="M639.47,309.15c-2.13,3.62-4.18,7.08-6.21,10.55a.91.91,0,0,1-.88.5H608.61a1.08,1.08,0,0,1-.26-.06c-.15-.19,0-.33.05-.47l5.73-9.83a1.19,1.19,0,0,1,1.14-.76c7.86,0,15.71,0,23.57,0C639,309.09,639.15,309.12,639.47,309.15Z"/><path class="cls-12" d="M612.64,287.33l1.85,3.12c1.4,2.38,2.79,4.77,4.21,7.14a1.06,1.06,0,0,1,.06,1.26q-5.8,9.85-11.55,19.74c-.54.92-.56.92-1.12,0-1.9-3.21-3.78-6.42-5.69-9.63a.83.83,0,0,1,0-1q6.06-10.22,12.08-20.47S612.49,287.45,612.64,287.33Z"/><path class="cls-12" d="M614,286.32h5c2.36,0,4.73,0,7.09,0a1,1,0,0,1,1.08.51q5.95,10.17,11.92,20.32a1.09,1.09,0,0,1,.08.27c-.24.23-.52.14-.77.14-3.76,0-7.52,0-11.28,0a1.18,1.18,0,0,1-1.19-.66q-5.92-10.13-11.89-20.23A2,2,0,0,1,614,286.32Z"/></g><rect class="cls-10" x="634.11" y="228.52" width="81.36" height="85.23"/><rect class="cls-18" x="642.99" y="254.17" width="60.97" height="2.98"/><rect class="cls-18" x="652.2" y="262.44" width="60.97" height="2.98"/><rect class="cls-18" x="646.23" y="270.11" width="60.97" height="2.98"/><rect class="cls-18" x="647.08" y="277.79" width="60.97" height="2.98"/><rect class="cls-18" x="646.66" y="286.32" width="60.97" height="2.98"/><path class="cls-16" d="M566,255.25h36.13a8.6,8.6,0,0,1,7.13,3.8l3.3,4.9a2.38,2.38,0,0,0,2,1h63a6.45,6.45,0,0,1,6.45,6.45v68.3H557.76l1-77.31A7.29,7.29,0,0,1,566,255.25Z"/><path class="cls-12" d="M639.47,308.6c-2.13,3.62-4.18,7.08-6.21,10.55a.91.91,0,0,1-.88.5H608.61a1.08,1.08,0,0,1-.26-.06c-.15-.19,0-.33.05-.47l5.73-9.83a1.19,1.19,0,0,1,1.14-.76c7.86,0,15.71,0,23.57,0C639,308.54,639.15,308.57,639.47,308.6Z"/><path class="cls-12" d="M612.64,286.78l1.85,3.12c1.4,2.38,2.79,4.77,4.21,7.14a1.06,1.06,0,0,1,.06,1.26Q613,308.16,607.21,318c-.54.92-.56.92-1.12,0-1.9-3.21-3.78-6.42-5.69-9.63a.83.83,0,0,1,0-1q6.06-10.22,12.08-20.47S612.49,286.9,612.64,286.78Z"/><path class="cls-12" d="M614,285.77h5c2.36,0,4.73,0,7.09,0a1,1,0,0,1,1.08.51q5.95,10.17,11.92,20.32a1.09,1.09,0,0,1,.08.27c-.24.23-.52.14-.77.14-3.76,0-7.52,0-11.28,0a1.18,1.18,0,0,1-1.19-.66q-5.92-10.13-11.89-20.23A2,2,0,0,1,614,285.77Z"/><polygon class="cls-19" points="463.58 557.12 298.25 557.12 309.5 441.99 445.41 439.39 463.58 557.12"/><polygon class="cls-20" points="426.09 579.31 331.21 578.12 342.83 474.06 414.74 474.06 426.09 579.31"/><path class="cls-21" d="M275.37,581.18S374,645,479.79,582.29c0,0-5.37-78.45-61.57-78.58,0,0-6.86,29.63-39,30.17s-40.69-29.74-40.69-29.74S290.39,498.46,275.37,581.18Z"/><path class="cls-20" d="M294.69,399.63c4.26,3.76,7.6,8.3,10.87,12.9-.95,6.4,1.82,13.13-1.75,19.29C289.71,426.44,285.71,412.33,294.69,399.63Z"/><path class="cls-20" d="M454.08,413.22c3.28-4.59,6.61-9.14,10.88-12.9,9,12.66,5,26.77-9.12,32.18C452.25,426.35,455,419.62,454.08,413.22Z"/><path class="cls-22" d="M302.19,432.5S312,503,377.26,503s78.87-59.91,79.63-68.25,18.2-120.58-73.56-120.58S302.19,432.5,302.19,432.5Z"/><path class="cls-19" d="M311.21,410s0-22,16.68-31.85,28.06-3,37.16-6.83,26.54-21.23,27.3-25.78,3,32.61,19,43.23S447.71,407,450,413.05s2.28-7.58,5.31-7.58,5,4.71,6.73,3,16.68-31.66-12.41-82.57c0,0-12-21.39-43.21-32.51,0,0,3.42-29.52-25.24-30.37S355.5,292.1,355.5,292.1s-34.53,4-54.91,51.18c0,0-10.12,25.82-3.7,62.61,0,0,1.28,5.56,4.71,4.71s4.71-4.71,4.71-4.71Z"/><path class="cls-23" d="M344,405.61c6.14-.09,10.32,4,10.24,10.07-.08,5.77-4,9.67-9.88,9.74s-10.62-4.57-10.52-10.06A10.27,10.27,0,0,1,344,405.61Z"/><path class="cls-23" d="M426.5,415.18c.2,5.19-4.29,9.94-9.68,10.23-6.17.33-10.55-3.58-10.72-9.57-.16-5.8,3.63-9.93,9.38-10.22S426.29,409.67,426.5,415.18Z"/><path class="cls-24" d="M381.05,470.34c-8.84-.51-15.74-4.63-21.86-10.33-1.14-1.06-2.51-2.42-1.8-4.09.64-1.5,2.4-.8,3.66-.81q19.81-.07,39.62,0c1.25,0,3-.68,3.66.82s-.42,2.65-1.37,3.59C396.81,465.56,389.73,469.75,381.05,470.34Z"/><ellipse class="cls-25" cx="408.57" cy="700.16" rx="234.78" ry="14.45"/></svg>