<svg id="Layer_1" data-name="Layer 1" xmlns="http://www.w3.org/2000/svg" viewBox="0 0 750 750"><defs><style>.cls-1,.cls-15{fill:none;stroke-miterlimit:10;}.cls-1{stroke:#d0d9dd;}.cls-2,.cls-5{fill:#d0d9dd;}.cls-3{fill:#5881c2;}.cls-4{fill:#fff;}.cls-18,.cls-5{isolation:isolate;}.cls-5{font-size:18.72px;font-family:Arial;}.cls-6{fill:#519af2;}.cls-7{fill:#7a5749;}.cls-8{fill:#f79020;}.cls-9{fill:#39d37b;}.cls-10{fill:#faa847;}.cls-11{fill:#7a491e;}.cls-12{fill:#f08022;}.cls-13{fill:#436497;}.cls-14{fill:#e6ebec;}.cls-15{stroke:#fff;stroke-width:2px;}.cls-16{fill:#f598a9;}.cls-17{fill:#6a9a40;}.cls-18{fill:#5481c2;opacity:0.2;}</style></defs><title>screen-new</title><path class="cls-1" d="M617.93,113.77V365.39A108.78,108.78,0,0,0,486.48,507.13H93.36a22.69,22.69,0,0,1-22.67-22.69V113.77A22.69,22.69,0,0,1,93.37,91.08H595.25A22.69,22.69,0,0,1,617.93,113.77Z"/><path class="cls-2" d="M617.89,114v21.91H70.63V114A22.69,22.69,0,0,1,93.32,91.35H595.19A22.69,22.69,0,0,1,617.89,114h0Z"/><rect class="cls-3" x="70.71" y="136.35" width="546.03" height="36.79"/><rect class="cls-2" x="197.7" y="215.18" width="274.84" height="99.3"/><rect class="cls-4" x="199.88" y="286.67" width="270.65" height="25.92"/><line class="cls-1" x1="177.23" y1="173.22" x2="177.23" y2="507.12"/><rect class="cls-2" x="197.59" y="320.39" width="133.99" height="103.97"/><rect class="cls-4" x="198.66" y="395.25" width="131.94" height="27.14"/><rect class="cls-2" x="337.73" y="320.79" width="133.99" height="103.97"/><rect class="cls-4" x="338.79" y="395.65" width="131.94" height="27.14"/><text class="cls-5" transform="translate(201.78 209.09)">2018</text><path class="cls-2" d="M617.93,365.39v119a22.69,22.69,0,0,1-22.68,22.69H486.48A108.79,108.79,0,0,1,617.93,365.39Z"/><circle class="cls-6" cx="590.15" cy="470.97" r="96.08"/><polygon class="cls-7" points="636.34 538.77 549.67 538.77 555.58 478.43 626.8 477.07 636.34 538.77"/><polygon class="cls-8" points="616.67 550.41 566.95 549.78 573.03 495.24 610.73 495.24 616.67 550.41"/><path class="cls-9" d="M537.68,551.39s51.71,33.47,107.14.58c0,0-2.81-41.12-32.27-41.19,0,0-3.6,15.53-20.43,15.81S570.77,511,570.77,511,545.56,508,537.68,551.39Z"/><path class="cls-8" d="M547.77,456.24a38.73,38.73,0,0,1,5.7,6.76c-0.5,3.35,1,6.88-.92,10.11C545.19,470.24,543.09,462.89,547.77,456.24Z"/><path class="cls-8" d="M631.34,463.35a38.6,38.6,0,0,1,5.7-6.76c4.7,6.63,2.6,14-4.78,16.87C630.39,470.24,631.84,466.71,631.34,463.35Z"/><path class="cls-10" d="M551.77,473.46s5.17,37,39.35,37,41.34-31.4,41.74-35.77,9.54-63.2-38.56-63.2S551.77,473.46,551.77,473.46Z"/><path class="cls-7" d="M556.46,461.68s0-11.53,8.74-16.69,14.71-1.59,19.48-3.58S598.59,430.28,599,427.9s1.59,17.09,9.94,22.66S628,460.1,629.2,463.28s1.19-4,2.78-4,2.63,2.47,3.53,1.57,8.74-16.59-6.5-43.28c0,0-6.28-11.21-22.65-17,0,0,1.79-15.47-13.23-15.92s-13.45,15.25-13.45,15.25-18.1,2.08-28.78,26.83c0,0-5.3,13.53-1.94,32.82,0,0,.67,2.91,2.47,2.47a4,4,0,0,0,2.47-2.47Z"/><path class="cls-11" d="M573.64,459.37a5.2,5.2,0,1,1-.62,0A5.19,5.19,0,0,1,573.64,459.37Z"/><path class="cls-11" d="M616.89,464.38a5.39,5.39,0,0,1-5.12,5.36,5.2,5.2,0,1,1-1.06-10.35l0.36,0a5.41,5.41,0,0,1,5.82,5v0Z"/><path class="cls-12" d="M593.07,493.29c-4.64-.27-8.25-2.43-11.46-5.41-0.6-.55-1.32-1.27-0.94-2.15s1.26-.42,1.92-0.42h20.77c0.66,0,1.55-.36,1.92.43s-0.22,1.39-.72,1.88C601.33,490.79,597.62,493,593.07,493.29Z"/><rect class="cls-13" x="213.36" y="147.48" width="227.35" height="19.38"/><rect class="cls-14" x="81.9" y="186.43" width="84.8" height="13.52"/><rect class="cls-14" x="82.6" y="207.17" width="84.8" height="13.52"/><rect class="cls-14" x="82.6" y="227.64" width="84.8" height="13.52"/><line class="cls-15" x1="63.76" y1="123.9" x2="629.49" y2="123.9"/><path class="cls-15" d="M90.84,123.69l21-18.86a18.74,18.74,0,0,1,12.5-4.66H257.4a19.09,19.09,0,0,1,12.74,4.75L290,122.79"/><circle class="cls-16" cx="594.27" cy="155.55" r="12.24"/><polygon class="cls-7" points="600.15 164.19 589.12 164.19 589.88 156.5 598.95 156.33 600.15 164.19"/><polygon class="cls-8" points="597.65 165.67 591.32 165.59 592.1 158.64 596.89 158.64 597.65 165.67"/><path class="cls-17" d="M587.59,165.79a13.54,13.54,0,0,0,13.65.07s-0.36-5.24-4.11-5.25a2.7,2.7,0,0,1-2.6,2,2.81,2.81,0,0,1-2.72-2S588.59,160.24,587.59,165.79Z"/><path class="cls-8" d="M588.88,153.68a4.93,4.93,0,0,1,.73.86,3.12,3.12,0,0,1-.12,1.29A1.33,1.33,0,0,1,588.88,153.68Z"/><path class="cls-8" d="M599.52,154.58a4.92,4.92,0,0,1,.73-0.86,1.33,1.33,0,0,1-.61,2.15A3,3,0,0,1,599.52,154.58Z"/><path class="cls-10" d="M589.38,155.87s0.66,4.71,5,4.71A5.3,5.3,0,0,0,599.7,156c0-.56,1.22-8-4.91-8S589.38,155.87,589.38,155.87Z"/><path class="cls-7" d="M590,154.37a2.65,2.65,0,0,1,1.11-2.13c1.11-.66,1.87-0.2,2.48-0.46a5,5,0,0,0,1.82-1.72c0-.3.2,2.18,1.27,2.89s2.43,1.22,2.58,1.62,0.15-.51.35-0.51a1.16,1.16,0,0,0,.45.2c0.12-.11,1.11-2.11-0.83-5.51a5.49,5.49,0,0,0-2.88-2.17,1.74,1.74,0,0,0-1.46-2l-0.22,0a1.67,1.67,0,0,0-1.71,1.94s-2.31.26-3.67,3.42a8.44,8.44,0,0,0-.25,4.18s0.09,0.37.31,0.31a0.51,0.51,0,0,0,.31-0.31Z"/><path class="cls-11" d="M592.18,154.07a0.66,0.66,0,1,1-.66.66A0.66,0.66,0,0,1,592.18,154.07Z"/><path class="cls-11" d="M597.68,154.71a0.69,0.69,0,0,1-.65.68,0.66,0.66,0,1,1-.09-1.32h0a0.69,0.69,0,0,1,.74.64h0Z"/><path class="cls-12" d="M594.64,158.4a2.3,2.3,0,0,1-1.46-.69,0.24,0.24,0,0,1-.12-0.27c0-.11.16-0.05,0.24-0.05H596a0.36,0.36,0,0,1,.24.05,0.2,0.2,0,0,1-.09.24A2.29,2.29,0,0,1,594.64,158.4Z"/><ellipse class="cls-18" cx="344.91" cy="678.4" rx="274.21" ry="14.45"/></svg>