<svg id="Layer_1" data-name="Layer 1" xmlns="http://www.w3.org/2000/svg" viewBox="0 0 750 750"><defs><style>.cls-1{fill:#5481c2;opacity:0.2;isolation:isolate;}.cls-14,.cls-18,.cls-2{fill:none;}.cls-2{stroke:#d0d9dd;}.cls-14,.cls-2{stroke-miterlimit:10;}.cls-3{fill:#d0d9dd;}.cls-4{fill:#5881c2;}.cls-5{fill:#519af2;}.cls-6{fill:#7a5749;}.cls-7{fill:#f79020;}.cls-8{fill:#39d37b;}.cls-9{fill:#faa847;}.cls-10{fill:#7a491e;}.cls-11{fill:#f08022;}.cls-12{fill:#436497;}.cls-13{fill:#e6ebec;}.cls-14{stroke:#fff;stroke-width:2px;}.cls-15{fill:#f598a9;}.cls-16{fill:#6a9a40;}.cls-17{fill:#e61b47;}.cls-18{stroke:#e61b47;stroke-linecap:round;stroke-linejoin:round;stroke-width:4px;}</style></defs><title>screen-new</title><ellipse class="cls-1" cx="344.91" cy="677.8" rx="274.21" ry="14.45"/><path class="cls-2" d="M617.93,113.17V364.79A108.78,108.78,0,0,0,486.48,506.53H93.36a22.69,22.69,0,0,1-22.67-22.69V113.17A22.69,22.69,0,0,1,93.37,90.48H595.25A22.69,22.69,0,0,1,617.93,113.17Z"/><path class="cls-3" d="M617.89,113.43v21.91H70.63V113.43A22.69,22.69,0,0,1,93.32,90.75H595.19a22.69,22.69,0,0,1,22.7,22.68h0Z"/><rect class="cls-4" x="70.71" y="135.75" width="546.03" height="36.79"/><line class="cls-2" x1="177.23" y1="172.62" x2="177.23" y2="506.52"/><path class="cls-3" d="M617.93,364.79v119a22.69,22.69,0,0,1-22.68,22.69H486.48A108.79,108.79,0,0,1,617.93,364.79Z"/><circle class="cls-5" cx="590.15" cy="470.37" r="96.08"/><polygon class="cls-6" points="636.34 538.17 549.67 538.17 555.58 477.83 626.8 476.47 636.34 538.17"/><polygon class="cls-7" points="616.67 549.81 566.95 549.18 573.03 494.64 610.73 494.64 616.67 549.81"/><path class="cls-8" d="M537.68,550.79s51.71,33.47,107.14.58c0,0-2.81-41.12-32.27-41.19,0,0-3.6,15.53-20.43,15.81s-21.35-15.59-21.35-15.59S545.56,507.43,537.68,550.79Z"/><path class="cls-7" d="M547.77,455.64a38.73,38.73,0,0,1,5.7,6.76c-0.5,3.35,1,6.88-.92,10.11C545.19,469.64,543.09,462.29,547.77,455.64Z"/><path class="cls-7" d="M631.34,462.75A38.6,38.6,0,0,1,637,456c4.7,6.63,2.6,14-4.78,16.87C630.39,469.64,631.84,466.11,631.34,462.75Z"/><path class="cls-9" d="M551.77,472.86s5.17,37,39.35,37,41.34-31.4,41.74-35.77,9.54-63.2-38.56-63.2S551.77,472.86,551.77,472.86Z"/><path class="cls-6" d="M556.46,461.08s0-11.53,8.74-16.69,14.71-1.59,19.48-3.58S598.59,429.68,599,427.3s1.59,17.09,9.94,22.66S628,459.5,629.2,462.68s1.19-4,2.78-4,2.63,2.47,3.53,1.57,8.74-16.59-6.5-43.28c0,0-6.28-11.21-22.65-17,0,0,1.79-15.47-13.23-15.92s-13.45,15.25-13.45,15.25-18.1,2.08-28.78,26.83c0,0-5.3,13.53-1.94,32.82,0,0,.67,2.91,2.47,2.47A4,4,0,0,0,553.9,459Z"/><path class="cls-10" d="M573.64,458.77a5.2,5.2,0,1,1-.62,0A5.19,5.19,0,0,1,573.64,458.77Z"/><path class="cls-10" d="M616.89,463.78a5.39,5.39,0,0,1-5.12,5.36,5.2,5.2,0,1,1-1.06-10.35l0.36,0a5.41,5.41,0,0,1,5.82,5v0Z"/><path class="cls-11" d="M593.07,492.69c-4.64-.27-8.25-2.43-11.46-5.41-0.6-.55-1.32-1.27-0.94-2.15s1.26-.42,1.92-0.42h20.77c0.66,0,1.55-.36,1.92.43s-0.22,1.39-.72,1.88C601.33,490.19,597.62,492.38,593.07,492.69Z"/><rect class="cls-12" x="213.36" y="146.88" width="227.35" height="19.38"/><rect class="cls-13" x="81.9" y="185.83" width="84.8" height="13.52"/><rect class="cls-13" x="82.6" y="206.57" width="84.8" height="13.52"/><rect class="cls-13" x="82.6" y="227.04" width="84.8" height="13.52"/><line class="cls-14" x1="63.76" y1="123.3" x2="629.49" y2="123.3"/><path class="cls-14" d="M90.84,123.09l21-18.86a18.74,18.74,0,0,1,12.5-4.66H257.4a19.09,19.09,0,0,1,12.74,4.75L290,122.19"/><circle class="cls-15" cx="594.27" cy="154.95" r="12.24"/><polygon class="cls-6" points="600.15 163.59 589.12 163.59 589.88 155.9 598.95 155.73 600.15 163.59"/><polygon class="cls-7" points="597.65 165.07 591.32 164.99 592.1 158.04 596.89 158.04 597.65 165.07"/><path class="cls-16" d="M587.59,165.19a13.54,13.54,0,0,0,13.65.07s-0.36-5.24-4.11-5.25a2.7,2.7,0,0,1-2.6,2,2.81,2.81,0,0,1-2.72-2S588.59,159.64,587.59,165.19Z"/><path class="cls-7" d="M588.88,153.08a4.93,4.93,0,0,1,.73.86,3.12,3.12,0,0,1-.12,1.29A1.33,1.33,0,0,1,588.88,153.08Z"/><path class="cls-7" d="M599.52,154a4.92,4.92,0,0,1,.73-0.86,1.33,1.33,0,0,1-.61,2.15A3,3,0,0,1,599.52,154Z"/><path class="cls-9" d="M589.38,155.27s0.66,4.71,5,4.71a5.3,5.3,0,0,0,5.32-4.56c0-.56,1.22-8-4.91-8S589.38,155.27,589.38,155.27Z"/><path class="cls-6" d="M590,153.77a2.65,2.65,0,0,1,1.11-2.13c1.11-.66,1.87-0.2,2.48-0.46a5,5,0,0,0,1.82-1.72c0-.3.2,2.18,1.27,2.89s2.43,1.22,2.58,1.62,0.15-.51.35-0.51a1.16,1.16,0,0,0,.45.2c0.12-.11,1.11-2.11-0.83-5.51a5.49,5.49,0,0,0-2.88-2.17,1.74,1.74,0,0,0-1.46-2l-0.22,0a1.67,1.67,0,0,0-1.71,1.94s-2.31.26-3.67,3.42a8.44,8.44,0,0,0-.25,4.18s0.09,0.37.31,0.31a0.51,0.51,0,0,0,.31-0.31Z"/><path class="cls-10" d="M592.18,153.47a0.66,0.66,0,1,1-.66.66A0.66,0.66,0,0,1,592.18,153.47Z"/><path class="cls-10" d="M597.68,154.11a0.69,0.69,0,0,1-.65.68,0.66,0.66,0,1,1-.09-1.32h0a0.69,0.69,0,0,1,.74.64h0Z"/><path class="cls-11" d="M594.64,157.8a2.3,2.3,0,0,1-1.46-.69,0.24,0.24,0,0,1-.12-0.27c0-.11.16-0.05,0.24-0.05H596a0.36,0.36,0,0,1,.24.05,0.2,0.2,0,0,1-.09.24A2.29,2.29,0,0,1,594.64,157.8Z"/><polygon class="cls-17" points="558.8 17.75 534.78 36.05 556.85 46.73 558.8 17.75"/><polygon class="cls-2" points="467.27 369.04 210.94 369.04 210.94 290.79 210.94 265.6 467.27 265.6 467.27 369.04"/><rect class="cls-3" x="211.32" y="379.05" width="256.33" height="16.27"/><rect class="cls-3" x="212.03" y="402.76" width="256.33" height="16.27"/><rect class="cls-3" x="211.78" y="426.75" width="256.33" height="16.27"/><line class="cls-2" x1="466.57" y1="299.94" x2="211.72" y2="299.94"/><line class="cls-2" x1="376.73" y1="265.44" x2="376.73" y2="300.12"/><line class="cls-2" x1="292.63" y1="264.92" x2="292.63" y2="299.61"/><line class="cls-2" x1="334.76" y1="265.44" x2="334.76" y2="300.12"/><polyline class="cls-18" points="227.22 357.65 253.03 336.3 270.81 355.87 325.08 295.37 377.58 350.53 551.08 32.01"/><line class="cls-2" x1="251.77" y1="265.77" x2="251.77" y2="300.46"/></svg>